<?xml version="1.0" encoding="utf-8"?>
<!-- Generator: Adobe Illustrator 24.1.2, SVG Export Plug-In . SVG Version: 6.00 Build 0)  -->
<svg version="1.1" id="bold" xmlns="http://www.w3.org/2000/svg" xmlns:xlink="http://www.w3.org/1999/xlink" x="0px" y="0px"
	 viewBox="0 0 512 512" style="enable-background:new 0 0 512 512;" xml:space="preserve">
<style type="text/css">
	.st0{fill:#FFFFFF;}
	.st1{fill:#8438FF;}
</style>
<path class="st0" d="M416,512H96c-53,0-96-43-96-96V96C0,43,43,0,96,0h320c53,0,96,43,96,96v320C512,469,469,512,416,512z"/>
<path class="st1" d="M309.3,128H202.7c-17.6,0-32,14.4-32,32v192c0,17.6,14.4,32,32,32h106.7c17.6,0,32-14.4,32-32V160
	C341.3,142.4,327,128,309.3,128z M202.7,149.3h106.7c5.9,0,10.7,4.8,10.7,10.7v181.3H192V160C192,154.1,196.8,149.3,202.7,149.3z"/>
</svg>
