<?xml version="1.0" encoding="utf-8"?>
<!-- Generator: Adobe Illustrator 24.1.2, SVG Export Plug-In . SVG Version: 6.00 Build 0)  -->
<svg version="1.1" id="bold" xmlns="http://www.w3.org/2000/svg" xmlns:xlink="http://www.w3.org/1999/xlink" x="0px" y="0px"
	 viewBox="0 0 512 512" style="enable-background:new 0 0 512 512;" xml:space="preserve">
<style type="text/css">
	.st0{fill:#FFFFFF;}
	.st1{fill:#FFAC88;}
	.st2{fill:#FF7438;}
</style>
<path class="st0" d="M416,512H96c-53,0-96-43-96-96V96C0,43,43,0,96,0h320c53,0,96,43,96,96v320C512,469,469,512,416,512z"/>
<path class="st1" d="M378.6,200.8l-56-19c-1.7-0.6-3.5-0.6-5.2,0l-56,19c-3.2,1.1-5.4,4.2-5.4,7.6v42.9c0,52.3,58.4,77.7,60.9,78.8
	c1,0.4,2.1,0.6,3.1,0.6s2.1-0.2,3.1-0.6c2.5-1.1,60.9-26.5,60.9-78.8v-42.9C384,205,381.8,201.9,378.6,200.8L378.6,200.8z
	 M355.1,241.2l-29.3,37.3c-1.8,2.3-4.4,3.7-7.3,4c-0.3,0-0.7,0-1,0c-2.5,0-5-0.9-6.9-2.6l-18.7-16c-4.5-3.8-5-10.6-1.2-15
	c3.8-4.5,10.6-5,15-1.2l10.2,8.8l22.5-28.6c3.6-4.6,10.3-5.4,15-1.8C357.9,229.9,358.7,236.6,355.1,241.2L355.1,241.2z"/>
<path class="st2" d="M298.7,165.6V160c0-17.6-14.4-32-32-32H160c-17.6,0-32,14.4-32,32v192c0,17.6,14.4,32,32,32h106.7
	c17.6,0,32-14.4,32-32v-7c-6.7-3.6-14.1-8.4-21.3-14.2v10.6h-128V160c0-5.9,4.8-10.7,10.7-10.7h106.7c5.9,0,10.7,4.8,10.7,10.7v12.9
	L298.7,165.6z"/>
</svg>
