<?xml version="1.0" encoding="utf-8"?>
<!-- Generator: Adobe Illustrator 24.1.2, SVG Export Plug-In . SVG Version: 6.00 Build 0)  -->
<svg version="1.1" id="bold" xmlns="http://www.w3.org/2000/svg" xmlns:xlink="http://www.w3.org/1999/xlink" x="0px" y="0px"
	 viewBox="0 0 512 512" style="enable-background:new 0 0 512 512;" xml:space="preserve">
<style type="text/css">
	.st0{fill:#FFFFFF;}
	.st1{fill:#38CFFF;}
	.st2{fill:#88E2FF;}
</style>
<path class="st0" d="M416,512H96c-53,0-96-43-96-96V96C0,43,43,0,96,0h320c53,0,96,43,96,96v320C512,469,469,512,416,512z"/>
<path class="st1" d="M305.9,160.3l-85.3-32c-1.3-0.4-2.6-0.4-3.8,0l-85.3,32c-2,0.8-3.4,2.8-3.4,5v68.6c0,97.3,88.6,117.8,89.5,118
	c0.4,0.1,0.7,0.1,1.2,0.1s0.8,0,1.2-0.1c0.2,0,3.7-0.8,9.3-2.9c1-1.5,2.1-3,3.4-4.3c-11.2-4-19.2-14.8-19.2-27.4
	c0-11.3,6.5-21.1,16-26c-6.3-9-7.2-21.1-1.4-31.2c3.8-6.8,10.1-11.6,17.7-13.8c4.3-1.1,8.5-1.2,12.7-0.4c6.4-19,26.4-32.5,51-32.5
	v-48C309.3,163.1,308,161.1,305.9,160.3L305.9,160.3z"/>
<path class="st2" d="M376,309.3h-14.1c-1-7.2-3-14-5.8-20.1l13.2-7.6c3.8-2.2,5.1-7.1,2.9-10.9c-2.2-3.8-7.1-5.2-10.9-2.9l-13.6,7.9
	c-2.6-3.2-5.4-6.1-8.4-8.6c1.3-2.6,2-5.5,2-8.4c0-13.5-14-24-32-24s-32,10.5-32,24c0,2.9,0.8,5.7,2,8.4c-3.1,2.5-5.9,5.4-8.4,8.6
	l-13.6-7.9c-3.8-2.2-8.7-0.9-10.9,2.9c-2.2,3.8-0.9,8.7,2.9,10.9l13.2,7.6c-2.8,6.1-4.8,12.9-5.8,20.1h-14.1c-4.4,0-8,3.6-8,8
	s3.6,8,8,8h13.6c0.6,9.2,2.8,17.8,6.3,25.4l-13.2,7.6c-3.8,2.2-5.1,7.1-2.9,10.9s7.1,5.2,10.9,2.9l13.6-7.9
	c9.7,12.1,23.3,19.6,38.4,19.6s28.7-7.5,38.4-19.6l13.6,7.9c3.8,2.2,8.7,0.9,10.9-2.9c2.2-3.8,0.9-8.7-2.9-10.9l-13.2-7.6
	c3.5-7.7,5.7-16.3,6.3-25.4H376c4.4,0,8-3.6,8-8S380.4,309.3,376,309.3L376,309.3z"/>
</svg>
